Input #0, flv, from '01.flv':
  Metadata:
    encoder         : Lavf58.20.100
  Duration: 00:00:10.03, start: 0.000000, bitrate: 873 kb/s
    Stream #0:0: Audio: mp3, 44100 Hz, stereo, fltp, 64 kb/s
    Stream #0:1: Video: flv1, yuv420p, 640x480, 400 kb/s, 25 fps, 25 tbr, 1k tbn
音视频分离
Demuxing video from file '01.flv' into '03.yuv'
Demuxing audio from file '01.flv' into '03.pcm'
Demuxing succeeded.
Play the output video file with the command:
ffplay -f rawvideo -pix_fmt yuv420p -video_size 640x480 03.yuv
Warning: the sample format the decoder produced is planar (fltp). This example will output the first channel only.
Play the output audio file with the command:
ffplay -f f32le -ac 1 -ar 44100 03.pcm
